<?xml version="1.0" encoding="UTF-8"?>
<svg version="1.1" xmlns="http://www.w3.org/2000/svg" width="460" height="146">
<path d="M0 0 C151.8 0 303.6 0 460 0 C460 48.18 460 96.36 460 146 C308.2 146 156.4 146 0 146 C0 97.82 0 49.64 0 0 Z " fill="#FDFDFD" transform="translate(0,0)"/>
<path d="M0 0 C1.09413208 -0.00145523 2.18826416 -0.00291046 3.31555176 -0.00440979 C5.61485473 -0.00275946 7.91416976 0.00870373 10.21337891 0.02954102 C13.70914202 0.05851412 17.20338678 0.05012603 20.69921875 0.03710938 C22.94531978 0.04334765 25.19141608 0.05173929 27.4375 0.0625 C28.98636902 0.05809654 28.98636902 0.05809654 30.56652832 0.05360413 C40.73285865 0.18411839 49.81864936 2.12768519 57.21875 9.49609375 C61.63525384 15.12497119 64.32256461 19.65594406 64.39575195 26.91040039 C64.41500481 28.57341942 64.41500481 28.57341942 64.43464661 30.27003479 C64.44203354 31.46998581 64.44942047 32.66993683 64.45703125 33.90625 C64.465103 35.14346298 64.47317474 36.38067596 64.48149109 37.65538025 C64.49533481 40.27894692 64.50605567 42.90253163 64.51391602 45.52612305 C64.52708968 49.5183467 64.57495787 53.50995449 64.61914062 57.50195312 C64.62927221 60.05337934 64.63778685 62.60481258 64.64453125 65.15625 C64.66203934 66.3420314 64.67954742 67.52781281 64.69758606 68.74952698 C64.67574214 77.19229774 63.28599532 84.06265183 58.4296875 91.08203125 C57.82382813 91.67242187 57.21796875 92.2628125 56.59375 92.87109375 C56.00335938 93.47695312 55.41296875 94.0828125 54.8046875 94.70703125 C46.80897451 100.23880852 38.85992144 101.10383197 29.34375 101.0625 C27.53608154 101.07179787 27.53608154 101.07179787 25.69189453 101.08128357 C23.15723473 101.08835188 20.62252821 101.08526043 18.08789062 101.07250977 C14.22959334 101.05863275 10.37371855 101.09277962 6.515625 101.13085938 C4.04166608 101.13181062 1.56770415 101.12995146 -0.90625 101.125 C-2.61917236 101.14488731 -2.61917236 101.14488731 -4.36669922 101.16517639 C-13.64258938 101.05833642 -20.70794145 98.54658631 -27.65625 92.30859375 C-34.71876422 84.57129236 -35.39048617 75.45228554 -35.34765625 65.40234375 C-35.35385483 64.1750354 -35.36005341 62.94772705 -35.36643982 61.68322754 C-35.37350917 59.10148914 -35.37041483 56.51970488 -35.35766602 53.93798828 C-35.34378949 50.0072787 -35.37793405 46.07894706 -35.41601562 42.1484375 C-35.41696687 39.62890567 -35.41510773 37.10937089 -35.41015625 34.58984375 C-35.42341446 33.42602173 -35.43667267 32.26219971 -35.45033264 31.06311035 C-35.35485634 22.62130176 -33.6422881 15.96930001 -28.03883362 9.47741699 C-19.92553204 1.73435127 -10.91118744 -0.11870859 0 0 Z " fill="#020202" transform="translate(86.78125,30.50390625)"/>
<path d="M0 0 C4.83103467 0.90214841 9.64053809 1.55754854 14.52441406 2.0925293 C27.94957533 3.72909504 39.88283494 5.66501987 49.27441406 16.1550293 C59.06286398 29.57918918 55.44115656 45.63689914 53.11816406 61.01416016 C52.7123344 63.7147322 52.32834508 66.41780018 51.94628906 69.12182617 C47.84986952 97.31826062 47.84986952 97.31826062 38.46191406 106.1550293 C24.06113861 116.7981024 8.15663588 112.94451097 -8.48193359 110.54394531 C-10.53808594 110.1550293 -10.53808594 110.1550293 -12.53808594 109.1550293 C-14.39973796 108.84268261 -16.26849478 108.57218209 -18.13964844 108.32299805 C-19.27015625 108.16379883 -20.40066406 108.00459961 -21.56542969 107.84057617 C-23.93929318 107.51194686 -26.31429947 107.19145642 -28.69042969 106.87963867 C-38.39936369 105.48872117 -46.91660618 102.79519825 -53.53808594 95.1550293 C-64.38364397 79.66479519 -58.75035489 60.92754172 -56.05078125 43.56469727 C-55.5845881 40.4642908 -55.16854333 37.36365794 -54.78027344 34.25268555 C-53.31005286 22.70740801 -51.49046377 12.93678328 -42.56152344 4.69018555 C-29.41801382 -5.28162774 -15.22974648 -2.8688992 0 0 Z M-46.53808594 16.1550293 C-51.60434157 23.6056879 -52.26756438 30.42042764 -52.16699219 39.2487793 C-52.16940414 40.47608765 -52.1718161 41.703396 -52.17430115 42.96789551 C-52.1733264 45.54967496 -52.16002271 48.13147629 -52.13500977 50.71313477 C-52.10068475 54.64371421 -52.11437909 58.57204394 -52.13378906 62.50268555 C-52.12689002 65.02222628 -52.11721713 67.54176126 -52.10449219 70.0612793 C-52.10945206 71.22510132 -52.11441193 72.38892334 -52.11952209 73.5880127 C-52.00057634 81.91126519 -50.57151458 88.85496556 -45.71386719 95.7409668 C-45.09898438 96.33135742 -44.48410156 96.92174805 -43.85058594 97.5300293 C-43.24859375 98.13588867 -42.64660156 98.74174805 -42.02636719 99.3659668 C-34.27832643 104.93677161 -27.1428865 105.75250358 -17.76074219 105.6862793 C-15.95095131 105.69201965 -15.95095131 105.69201965 -14.104599 105.69787598 C-11.56394614 105.70058676 -9.02326497 105.69328437 -6.48266602 105.67651367 C-2.61573387 105.65511313 1.24933639 105.67633656 5.11621094 105.7019043 C7.59473062 105.69926051 10.07324916 105.69413449 12.55175781 105.6862793 C13.69684311 105.69437622 14.84192841 105.70247314 16.02171326 105.71081543 C24.30681801 105.61509618 31.16106448 104.13054154 38.04785156 99.3659668 C38.63824219 98.76010742 39.22863281 98.15424805 39.83691406 97.5300293 C40.44277344 96.93963867 41.04863281 96.34924805 41.67285156 95.7409668 C47.25385176 87.67410625 48.06922447 79.65934585 48.02832031 70.0612793 C48.03451889 68.83397095 48.04071747 67.6066626 48.04710388 66.34216309 C48.05417323 63.76042469 48.0510789 61.17864043 48.03833008 58.59692383 C48.02445355 54.66621425 48.05859812 50.73788261 48.09667969 46.80737305 C48.09763093 44.28784122 48.09577179 41.76830644 48.09082031 39.2487793 C48.10407852 38.08495728 48.11733673 36.92113525 48.1309967 35.7220459 C48.03489767 27.22517719 46.33875139 20.42225918 40.51612854 14.01330566 C34.15227034 7.89128416 26.2613776 5.07768284 17.48486328 4.97802734 C16.49638397 4.96519211 15.50790466 4.95235687 14.48947144 4.93913269 C13.42592438 4.93174576 12.36237732 4.92435883 11.26660156 4.91674805 C10.1639798 4.9086763 9.06135803 4.90060455 7.92532349 4.89228821 C5.59020554 4.878461 3.2550675 4.86773275 0.91992188 4.85986328 C-1.45806842 4.84835897 -3.8360332 4.82793197 -6.21386719 4.79833984 C-9.65805536 4.75547905 -13.10147601 4.73946642 -16.54589844 4.72924805 C-18.12300095 4.70298592 -18.12300095 4.70298592 -19.73196411 4.67619324 C-30.44739673 4.70731192 -39.41507838 7.90266784 -46.53808594 16.1550293 Z " fill="#AFAFAF" transform="translate(103.5380859375,25.844970703125)"/>
<path d="M0 0 C0.66 0 1.32 0 2 0 C2 16.5 2 33 2 50 C9.095 49.9175 16.19 49.835 23.5 49.75 C26.83641602 49.72631348 26.83641602 49.72631348 30.24023438 49.70214844 C32.02476544 49.67275393 33.80927368 49.64192374 35.59375 49.609375 C36.95741699 49.60768311 36.95741699 49.60768311 38.34863281 49.60595703 C43.77925982 49.48534181 47.55532433 48.68990787 52.22521973 45.85357666 C54 45 54 45 58 45 C58.33 44.01 58.66 43.02 59 42 C62.6390569 39.23431676 66.64373989 39.7857577 71 40 C72 41 72 41 72.0625 43.5625 C72.041875 44.366875 72.02125 45.17125 72 46 C70.515 46.495 70.515 46.495 69 47 C68.87496094 47.62003906 68.74992187 48.24007812 68.62109375 48.87890625 C68 51 68 51 65.78515625 52.52734375 C63.97316866 53.46583374 62.16066988 54.40333743 60.34765625 55.33984375 C57.54448959 57.32211635 57.13370323 58.83274839 56 62 C53 64 53 64 50.0625 63.6875 C44.01603509 63.45543951 38.88629774 67.89114299 34 71 C32.35 71.99 30.7 72.98 29 74 C37.25 74.33 45.5 74.66 54 75 C54 75.33 54 75.66 54 76 C35.52 76 17.04 76 -2 76 C2.47613794 71.52386206 3.17316193 71.8037018 9 71 C13.32388084 68.69316044 13.32388084 68.69316044 16.0625 64.8125 C17 63 17 63 19.375 62.1875 C21.89578951 62.00744361 23.6203624 62.20678747 26 63 C26 62.34 26 61.68 26 61 C26.99 60.34 27.98 59.68 29 59 C29.36162029 57.67405895 29.69728039 56.34061543 30 55 C30.66 54.67 31.32 54.34 32 54 C31.06615479 53.97494385 30.13230957 53.9498877 29.17016602 53.92407227 C25.71674811 53.82913072 22.2635104 53.72988742 18.81030273 53.62768555 C17.31360731 53.58428187 15.81686061 53.54261087 14.32006836 53.50268555 C12.17285688 53.44511384 10.02590479 53.38138284 7.87890625 53.31640625 C6.5854126 53.27974854 5.29191895 53.24309082 3.95922852 53.20532227 C1 53 1 53 0 52 C-0.09340434 50.37325222 -0.11745171 48.74245949 -0.11352539 47.11303711 C-0.11344986 46.07203354 -0.11337433 45.03102997 -0.11329651 43.95848083 C-0.10813522 42.8262056 -0.10297394 41.69393036 -0.09765625 40.52734375 C-0.0962413 39.37456436 -0.09482635 38.22178497 -0.09336853 37.03407288 C-0.08775005 33.33518936 -0.07519442 29.63636536 -0.0625 25.9375 C-0.05748738 23.43684983 -0.05292406 20.93619871 -0.04882812 18.43554688 C-0.03777462 12.29034412 -0.02101852 6.14517631 0 0 Z " fill="#080808" transform="translate(75,55)"/>
<path d="M0 0 C3.68623011 1.61272567 4.75355 2.630325 7 6 C7.24840297 8.6746645 7.37018158 11.20077613 7.375 13.875 C7.39949219 14.58269531 7.42398437 15.29039063 7.44921875 16.01953125 C7.4699525 19.73087258 7.12846167 21.80069938 5.1015625 24.9453125 C1.12098853 28.83710044 -2.70674574 28.39517489 -8.07421875 28.34375 C-11 28 -11 28 -14.125 25.875 C-17.52566812 20.66064222 -18.55508221 16.21692078 -18 10 C-14.6234938 0.93674651 -9.15580676 -1.26494699 0 0 Z " fill="#0C0C0C" transform="translate(373,74)"/>
<path d="M0 0 C3.69093513 2.10910579 5.41233378 4.12057211 7 8 C7.71784252 14.17158118 7.66083424 19.7702368 4 25 C0.07885206 28.59294613 -3.155759 28.55637109 -8.296875 28.42578125 C-12.54100718 27.7572691 -14.17992452 26.19113804 -17 23 C-18.05336511 19.83990467 -18.20032888 17.4446864 -18.25 14.125 C-18.28867188 12.58199219 -18.28867188 12.58199219 -18.328125 11.0078125 C-17.85587049 6.67881283 -16.25127038 4.20894411 -13.15234375 1.21484375 C-9.0622417 -1.09372565 -4.54188988 -0.61322252 0 0 Z " fill="#131313" transform="translate(245,74)"/>
<path d="M0 0 C0.33 0 0.66 0 1 0 C1.00364563 0.65431 1.00729126 1.30862 1.01104736 1.98275757 C1.05305065 8.82951625 1.1225206 15.67561568 1.20751953 22.52197266 C1.23564171 25.07268664 1.25689949 27.62348635 1.27099609 30.17431641 C1.29254618 33.85363377 1.33926135 37.53192981 1.390625 41.2109375 C1.39185364 42.34050873 1.39308228 43.47007996 1.39434814 44.63388062 C1.5741526 54.48519958 3.67792113 62.32357623 10.73046875 69.4296875 C18.42355338 74.75261352 25.48212471 75.5994036 34.69140625 75.609375 C36.4701841 75.63417938 36.4701841 75.63417938 38.28489685 75.65948486 C42.0441516 75.70777402 45.80300234 75.72929447 49.5625 75.75 C52.12306699 75.77817547 54.68361532 75.80810508 57.24414062 75.83984375 C63.49602087 75.91352811 69.74778838 75.96528227 76 76 C76 76.33 76 76.66 76 77 C64.12 77 52.24 77 40 77 C40 77.66 40 78.32 40 79 C29.08763183 79.59522008 15.18710537 78.42655688 6 72 C5.401875 71.61457031 4.80375 71.22914062 4.1875 70.83203125 C-2.34866156 66.02851596 -6.21266351 58.814172 -7.51171875 50.87109375 C-7.8925818 39.53713475 -5.72962842 28.0669206 -4.0703125 16.890625 C-3.91320801 15.82875977 -3.75610352 14.76689453 -3.59423828 13.67285156 C-3 11 -3 11 -1 8 C-0.54860541 5.9507906 -0.54860541 5.9507906 -0.375 3.8125 C-0.189375 1.9253125 -0.189375 1.9253125 0 0 Z " fill="#A9A9A9" transform="translate(51,55)"/>
<path d="M0 0 C1.65 0 3.3 0 5 0 C7.50985679 5.73681553 9.39461791 11.68611341 9 18 C9.66 18 10.32 18 11 18 C11.10957031 17.45472656 11.21914063 16.90945312 11.33203125 16.34765625 C12.51009937 10.74464935 14.087035 5.3945613 16 0 C17.65 0 19.3 0 21 0 C21.34933594 1.05960937 21.69867188 2.11921875 22.05859375 3.2109375 C22.51814988 4.59898459 22.97778964 5.98700399 23.4375 7.375 C23.66759766 8.07367188 23.89769531 8.77234375 24.13476562 9.4921875 C25.38735399 13.31810837 25.38735399 13.31810837 27 17 C27.20496094 15.94039062 27.40992188 14.88078125 27.62109375 13.7890625 C27.89307666 12.40101178 28.16522044 11.01299256 28.4375 9.625 C28.57220703 8.92632812 28.70691406 8.22765625 28.84570312 7.5078125 C29.88671875 2.2265625 29.88671875 2.2265625 31 0 C32.65 0 34.3 0 36 0 C35.42100187 6.59525453 34.20265263 12.6891618 32.4375 19.0625 C32.20353516 19.92810547 31.96957031 20.79371094 31.72851562 21.68554688 C31.1582666 23.79197695 30.57998166 25.89622889 30 28 C28.02 28 26.04 28 24 28 C22.02 22.06 20.04 16.12 18 10 C16.02 15.94 14.04 21.88 12 28 C10.02 28 8.04 28 6 28 C5.85377197 27.3387915 5.70754395 26.67758301 5.55688477 25.99633789 C4.89588968 23.01753377 4.22927255 20.04001597 3.5625 17.0625 C3.21735352 15.50112305 3.21735352 15.50112305 2.86523438 13.90820312 C2.64287109 12.91884766 2.42050781 11.92949219 2.19140625 10.91015625 C1.98717041 9.99371338 1.78293457 9.07727051 1.57250977 8.13305664 C1.19918053 6.03263495 1.19918053 6.03263495 0 5 C-0.04063832 3.33382885 -0.042721 1.66611905 0 0 Z " fill="#131313" transform="translate(385,74)"/>
<path d="M0 0 C1.03769531 -0.02578125 2.07539063 -0.0515625 3.14453125 -0.078125 C6.58825057 0.29321316 8.4319326 1.18581143 11.1875 3.25 C12 5.4375 12 5.4375 12.1875 7.25 C9.9375 8.4375 9.9375 8.4375 7.1875 9.25 C5.84349167 8.26439389 4.51142972 7.26241685 3.1875 6.25 C-0.39649407 5.83307147 -0.39649407 5.83307147 -3.8125 6.25 C-4.4725 6.91 -5.1325 7.57 -5.8125 8.25 C-5.89478292 10.31477828 -5.89478292 10.31477828 -4.8125 12.25 C-2.47752562 13.51082398 -2.47752562 13.51082398 0.375 14.3125 C4.51063503 15.68387442 8.39763616 17.0558683 12.1875 19.25 C13.91757568 22.71015135 13.6710273 26.46672555 13.1875 30.25 C11.07358123 33.74890004 10.07013941 34.95578686 6.1875 36.25 C4.23274991 36.3947963 2.2723862 36.47067502 0.3125 36.5 C-1.23050781 36.53867188 -1.23050781 36.53867188 -2.8046875 36.578125 C-7.17407798 36.10146422 -9.7496613 34.3128387 -12.8125 31.25 C-12.8125 30.26 -12.8125 29.27 -12.8125 28.25 C-11.1625 27.59 -9.5125 26.93 -7.8125 26.25 C-7.3175 26.91 -6.8225 27.57 -6.3125 28.25 C-2.67318605 31.16145116 -0.40182505 30.62010686 4.1875 30.25 C4.8475 29.92 5.5075 29.59 6.1875 29.25 C6.1875 27.6 6.1875 25.95 6.1875 24.25 C2.48606772 22.63062338 -1.17665296 21.11803314 -5 19.8125 C-8.4264734 18.5084441 -10.75492733 17.4220912 -12.8125 14.25 C-13.26718446 11.06720877 -13.52404438 9.26359974 -12.8125 6.25 C-8.78160595 1.26442052 -6.2451601 0.09240681 0 0 Z " fill="#0A0A0A" transform="translate(188.8125,65.75)"/>
<path d="M0 0 C0.99 0.33 1.98 0.66 3 1 C2.89502813 8.48449454 -1.20050403 13.47448856 -5.375 19.4375 C-6.06078125 20.45521484 -6.7465625 21.47292969 -7.453125 22.52148438 C-11.27708709 28.06771733 -11.27708709 28.06771733 -13 30 C-16 30 -16 30 -17.97265625 28.06640625 C-18.66230469 27.24011719 -19.35195312 26.41382812 -20.0625 25.5625 C-22.65281869 22.30534425 -22.65281869 22.30534425 -26 20 C-26.24492188 20.67417969 -26.48984375 21.34835938 -26.7421875 22.04296875 C-28.27261836 25.64090714 -30.15843308 28.93876063 -32.125 32.3125 C-32.49753906 32.95767578 -32.87007813 33.60285156 -33.25390625 34.26757812 C-34.16632213 35.84675945 -35.08275509 37.42361864 -36 39 C-36.66 39 -37.32 39 -38 39 C-37.15941406 29.82601896 -31.13377379 19.76358509 -24.3828125 13.6171875 C-21.65631957 11.87773355 -18.90055615 10.42964022 -16 9 C-14.10179553 7.92936172 -12.22081622 6.83158471 -10.33886719 5.73266602 C-3.51701011 1.75850505 -3.51701011 1.75850505 0 0 Z " fill="#060606" transform="translate(121,62)"/>
<path d="M0 0 C1.98 0 3.96 0 6 0 C6.33 6.93 6.66 13.86 7 21 C8.7634375 18.525 8.7634375 18.525 10.5625 16 C14.35000923 11.20653912 14.35000923 11.20653912 17.08984375 10.3359375 C19 10.375 19 10.375 22 11 C22 13 22 13 19.75 15.375 C18.07534067 16.97353845 16.37299691 18.54450269 14.625 20.0625 C12.78638003 21.80138844 12.78638003 21.80138844 13.11328125 23.734375 C14.37544947 26.95929821 16.43920938 29.49192891 18.5625 32.1875 C23 37.89093323 23 37.89093323 23 39 C19.9375 39.625 19.9375 39.625 16 39 C13.84014485 36.53776513 12.17878171 33.98563577 10.48046875 31.1875 C9.99191406 30.465625 9.50335938 29.74375 9 29 C8.34 29 7.68 29 7 29 C6.67 32.3 6.34 35.6 6 39 C4.02 39 2.04 39 0 39 C0 26.13 0 13.26 0 0 Z " fill="#161616" transform="translate(286,63)"/>
<path d="M0 0 C7.59 0 15.18 0 23 0 C23 1.98 23 3.96 23 6 C17.39 6 11.78 6 6 6 C6 8.97 6 11.94 6 15 C10.62 15 15.24 15 20 15 C20 16.65 20 18.3 20 20 C15.38 20 10.76 20 6 20 C6 25.28 6 30.56 6 36 C4.02 36 2.04 36 0 36 C0 24.12 0 12.24 0 0 Z " fill="#0E0E0E" transform="translate(314,66)"/>
<path d="M0 0 C0.33 0 0.66 0 1 0 C1.7016107 8.41932842 -0.45859824 13.26264447 -5.125 20.125 C-10.36347408 26.06302186 -17.55025574 29.52690033 -25.33984375 30.203125 C-35.2346435 30.38167778 -49.9874233 30.50628835 -59 26 C-59 25.01 -59 24.02 -59 23 C-57.97229492 22.99589111 -56.94458984 22.99178223 -55.88574219 22.98754883 C-52.01611434 22.9655214 -48.1474697 22.91099498 -44.27832031 22.84741211 C-42.6143548 22.82443537 -40.95024805 22.80988488 -39.28613281 22.80444336 C-27.28464477 22.75750613 -16.53442256 22.04232207 -7 13.8125 C-3.37685673 9.80843947 -1.6452025 5.07866859 0 0 Z " fill="#B2B2B2" transform="translate(150,109)"/>
<path d="M0 0 C1.2684375 -0.02513672 1.2684375 -0.02513672 2.5625 -0.05078125 C5.45330535 0.38005993 6.82826275 1.40720274 9 3.3125 C8.34 4.6325 7.68 5.9525 7 7.3125 C6.01 6.9825 5.02 6.6525 4 6.3125 C1.2364928 6.02794084 -1.19366639 6.13432009 -4 6.3125 C-6.07324138 9.42236207 -6.27392186 10.20358387 -6.25 13.75 C-6.25515625 14.51183594 -6.2603125 15.27367188 -6.265625 16.05859375 C-5.9747292 18.52693018 -5.22975656 20.170186 -4 22.3125 C-2.7625 22.3125 -1.525 22.3125 -0.25 22.3125 C8 22.3125 8 22.3125 10 23.3125 C8.25 27.1875 8.25 27.1875 6 28.3125 C-4.41617015 29.3895043 -4.41617015 29.3895043 -9.125 26.1875 C-12.57043385 20.90450143 -13.99737495 15.62515368 -13 9.3125 C-11.73945875 5.99220835 -10.23834316 3.10895575 -7.171875 1.13671875 C-4.66170576 0.18411855 -2.68128541 0.01226198 0 0 Z " fill="#141414" transform="translate(270,73.6875)"/>
<path d="M0 0 C1.98 0 3.96 0 6 0 C6 2.31 6 4.62 6 7 C7.98 7 9.96 7 12 7 C12 8.65 12 10.3 12 12 C10.02 12 8.04 12 6 12 C6.33 17.94 6.66 23.88 7 30 C8.98 30.33 10.96 30.66 13 31 C13 32.32 13 33.64 13 35 C11.3973218 35.10824843 9.79254252 35.18570645 8.1875 35.25 C7.29417969 35.29640625 6.40085938 35.3428125 5.48046875 35.390625 C3 35 3 35 1.1875 33.59375 C-0.66320187 29.5514275 -0.31379143 25.63457932 -0.1875 21.25 C-0.16719727 19.91775391 -0.16719727 19.91775391 -0.14648438 18.55859375 C-0.11121309 16.37177422 -0.06192752 14.18620034 0 12 C-1.32 12 -2.64 12 -4 12 C-4 10.35 -4 8.7 -4 7 C-2.68 7 -1.36 7 0 7 C0 4.69 0 2.38 0 0 Z " fill="#141414" transform="translate(210,67)"/>
<path d="M0 0 C0.66 0 1.32 0 2 0 C2 16.5 2 33 2 50 C18.5 50 35 50 52 50 C52.33 50.99 52.66 51.98 53 53 C45.61271898 53.02526692 38.22544902 53.0428316 30.83813477 53.05493164 C28.32283105 53.05997363 25.80753028 53.06680703 23.29223633 53.07543945 C19.68570225 53.08751094 16.07920677 53.09322949 12.47265625 53.09765625 C10.77424339 53.10539818 10.77424339 53.10539818 9.04151917 53.11329651 C8.00051559 53.11337204 6.95951202 53.11344757 5.88696289 53.11352539 C4.50463219 53.11685631 4.50463219 53.11685631 3.09437561 53.12025452 C1 53 1 53 0 52 C-0.09340434 50.37325222 -0.11745171 48.74245949 -0.11352539 47.11303711 C-0.11344986 46.07203354 -0.11337433 45.03102997 -0.11329651 43.95848083 C-0.10813522 42.8262056 -0.10297394 41.69393036 -0.09765625 40.52734375 C-0.0962413 39.37456436 -0.09482635 38.22178497 -0.09336853 37.03407288 C-0.08775005 33.33518936 -0.07519442 29.63636536 -0.0625 25.9375 C-0.05748738 23.43684983 -0.05292406 20.93619871 -0.04882812 18.43554688 C-0.03777462 12.29034412 -0.02101852 6.14517631 0 0 Z " fill="#BDBDBD" transform="translate(75,55)"/>
<path d="M0 0 C1.98 0 3.96 0 6 0 C6 12.87 6 25.74 6 39 C4.02 39 2.04 39 0 39 C0 26.13 0 13.26 0 0 Z " fill="#1B1B1B" transform="translate(343,63)"/>
<path d="M0 0 C1.875 0.37109375 1.875 0.37109375 3.875 1.80859375 C5.79652685 6.7325063 5.4994176 11.45881485 3.875 16.43359375 C1.61798874 18.62007341 0.91176812 18.77838427 -2.125 18.99609375 C-5.16176812 18.77838427 -5.86798874 18.62007341 -8.125 16.43359375 C-9.7494176 11.45881485 -10.04652685 6.7325063 -8.125 1.80859375 C-5.40386096 -0.14722493 -3.29880783 -0.2001115 0 0 Z " fill="#F7F7F7" transform="translate(370.125,78.62890625)"/>
<path d="M0 0 C0.66 0 1.32 0 2 0 C1.11851833 6.47124108 -2.74876699 11.04502585 -6.375 16.3125 C-7.06078125 17.33923828 -7.7465625 18.36597656 -8.453125 19.42382812 C-9.44699219 20.87885742 -9.44699219 20.87885742 -10.4609375 22.36328125 C-11.06728027 23.25313721 -11.67362305 24.14299316 -12.29833984 25.05981445 C-12.8598877 25.70007568 -13.42143555 26.34033691 -14 27 C-17 27 -17 27 -18.97265625 25.06640625 C-19.66230469 24.24011719 -20.35195312 23.41382812 -21.0625 22.5625 C-23.65281869 19.30534425 -23.65281869 19.30534425 -27 17 C-27.24492188 17.67417969 -27.48984375 18.34835938 -27.7421875 19.04296875 C-29.27261836 22.64090714 -31.15843308 25.93876063 -33.125 29.3125 C-33.49753906 29.95767578 -33.87007813 30.60285156 -34.25390625 31.26757812 C-35.16632213 32.84675945 -36.08275509 34.42361864 -37 36 C-37.66 36 -38.32 36 -39 36 C-38.5573189 30.10386453 -35.96258521 26.03504201 -32.9375 21.125 C-32.46505859 20.34125 -31.99261719 19.5575 -31.50585938 18.75 C-30.34563713 16.82801567 -29.17694224 14.91177465 -28 13 C-24.15166248 13.78532413 -22.84477671 14.97799913 -20.375 18.0625 C-19.29107602 19.40912172 -18.17371898 20.73088022 -17 22 C-16.34 22 -15.68 22 -15 22 C-13.40012048 20.01231265 -13.40012048 20.01231265 -11.77734375 17.44140625 C-11.15666016 16.49845703 -10.53597656 15.55550781 -9.89648438 14.58398438 C-9.25001953 13.58689453 -8.60355469 12.58980469 -7.9375 11.5625 C-6.65575094 9.60494272 -5.37323982 7.64788413 -4.08984375 5.69140625 C-3.52128662 4.81685791 -2.95272949 3.94230957 -2.36694336 3.04125977 C-1 1 -1 1 0 0 Z " fill="#E0E0E0" transform="translate(122,65)"/>
<path d="M0 0 C3.08197611 -0.39136205 5.05330471 -0.62670002 8 0 C10.73627486 2.73627486 11.19090554 5.26146642 11.375 9 C11.19090554 12.73853358 10.73627486 15.26372514 8 18 C5.05330471 18.62670002 3.08197611 18.39136205 0 18 C-2.30821663 14.53767506 -2.27000989 13.08201684 -2.25 9 C-2.25515625 7.948125 -2.2603125 6.89625 -2.265625 5.8125 C-2 3 -2 3 0 0 Z " fill="#F8F8F8" transform="translate(235,79)"/>
<path d="M0 0 C1.03769531 -0.02578125 2.07539063 -0.0515625 3.14453125 -0.078125 C6.58825057 0.29321316 8.4319326 1.18581143 11.1875 3.25 C12 5.4375 12 5.4375 12.1875 7.25 C9.9375 8.4375 9.9375 8.4375 7.1875 9.25 C5.84349167 8.26439389 4.51142972 7.26241685 3.1875 6.25 C-0.3125 5.58333333 -0.3125 5.58333333 -3.8125 6.25 C-6.28458796 8.60832772 -6.28458796 8.60832772 -7.8125 11.25 C-7.8125 9.93 -7.8125 8.61 -7.8125 7.25 C-9.1325 7.25 -10.4525 7.25 -11.8125 7.25 C-11.8125 9.56 -11.8125 11.87 -11.8125 14.25 C-12.1425 14.25 -12.4725 14.25 -12.8125 14.25 C-13.42614554 7.00898264 -13.42614554 7.00898264 -10.4375 3.3125 C-6.67423978 0.35565268 -4.74423113 0.07019824 0 0 Z " fill="#090909" transform="translate(188.8125,65.75)"/>
<path d="M0 0 C4.81023365 1.0387691 6.04019146 3.13580552 9 7 C8.34 7 7.68 7 7 7 C6.67 7.66 6.34 8.32 6 9 C4.35 7.35 2.7 5.7 1 4 C0.75507812 4.67417969 0.51015625 5.34835938 0.2578125 6.04296875 C-1.27261836 9.64090714 -3.15843308 12.93876063 -5.125 16.3125 C-5.49753906 16.95767578 -5.87007813 17.60285156 -6.25390625 18.26757812 C-7.16632213 19.84675945 -8.08275509 21.42361864 -9 23 C-9.66 23 -10.32 23 -11 23 C-10.5573189 17.10386453 -7.96258521 13.03504201 -4.9375 8.125 C-4.46505859 7.34125 -3.99261719 6.5575 -3.50585938 5.75 C-2.34563713 3.82801567 -1.17694224 1.91177465 0 0 Z " fill="#DEDEDE" transform="translate(94,78)"/>
<path d="M0 0 C-0.99 1.485 -0.99 1.485 -2 3 C-2.99 3 -3.98 3 -5 3 C-4.67 3.99 -4.34 4.98 -4 6 C-5.9375 8.6875 -5.9375 8.6875 -8 11 C-8 9.68 -8 8.36 -8 7 C-9.32 7 -10.64 7 -12 7 C-12 9.31 -12 11.62 -12 14 C-12.33 14 -12.66 14 -13 14 C-13.61364554 6.75898264 -13.61364554 6.75898264 -10.625 3.0625 C-6.77510379 0.03758155 -4.85148682 -0.1054671 0 0 Z " fill="#191919" transform="translate(189,66)"/>
<path d="M0 0 C0 1.32 0 2.64 0 4 C-1.26839526 4.50615298 -2.53983102 5.00469099 -3.8125 5.5 C-4.87404297 5.91765625 -4.87404297 5.91765625 -5.95703125 6.34375 C-8 7 -8 7 -11 7 C-11.33 5.68 -11.66 4.36 -12 3 C-8.2391768 -0.7608232 -5.0273023 -0.25136512 0 0 Z " fill="#080808" transform="translate(371,74)"/>
<path d="M0 0 C0.33 0.99 0.66 1.98 1 3 C-0.21484375 5.04296875 -0.21484375 5.04296875 -1.9375 7.1875 C-2.50339844 7.90292969 -3.06929688 8.61835937 -3.65234375 9.35546875 C-4.09707031 9.89816406 -4.54179688 10.44085938 -5 11 C-9.6875 7.38671875 -9.6875 7.38671875 -11 6 C-11 5.01 -11 4.02 -11 3 C-9.02 3.66 -7.04 4.32 -5 5 C-3.35 3.35 -1.7 1.7 0 0 Z " fill="#E7E7E7" transform="translate(112,82)"/>
<path d="M0 0 C1.32 1.65 2.64 3.3 4 5 C3.34 5.66 2.68 6.32 2 7 C1.34 6.34 0.68 5.68 0 5 C-0.8723412 7.99480917 -1.10829766 10.63575911 -1.0625 13.75 C-1.05347656 14.54921875 -1.04445313 15.3484375 -1.03515625 16.171875 C-1.02355469 16.77515625 -1.01195312 17.3784375 -1 18 C-1.33 18 -1.66 18 -2 18 C-3.65309295 11.1809916 -3.59520364 6.14180621 0 0 Z " fill="#353535" transform="translate(358,78)"/>
<path d="M0 0 C1.32 0 2.64 0 4 0 C4 2.64 4 5.28 4 8 C2.68 8.33 1.36 8.66 0 9 C0 6.03 0 3.06 0 0 Z " fill="#040404" transform="translate(287,63)"/>
<path d="M0 0 C1.32 0 2.64 0 4 0 C4.33 1.98 4.66 3.96 5 6 C3.35 6.66 1.7 7.32 0 8 C0 5.36 0 2.72 0 0 Z " fill="#050505" transform="translate(177,73)"/>
<path d="M0 0 C0.99 0.66 1.98 1.32 3 2 C1.68 4.31 0.36 6.62 -1 9 C-1.66 9 -2.32 9 -3 9 C-2.5020163 5.26512223 -2.12508244 3.18762365 0 0 Z " fill="#D4D4D4" transform="translate(86,92)"/>
<path d="M0 0 C2.91517292 1.07401108 4.77810176 1.77810176 7 4 C2.87831311 5.62950412 0.29299643 6.26264601 -4 5 C-2.68 4.34 -1.36 3.68 0 3 C0 2.01 0 1.02 0 0 Z " fill="#1B1B1B" transform="translate(371,74)"/>
<path d="M0 0 C0.33 1.32 0.66 2.64 1 4 C-0.65 4.66 -2.3 5.32 -4 6 C-4.66 5.01 -5.32 4.02 -6 3 C-2.25 0 -2.25 0 0 0 Z " fill="#1B1B1B" transform="translate(200,69)"/>
<path d="M0 0 C-0.33 1.98 -0.66 3.96 -1 6 C-1.33 4.68 -1.66 3.36 -2 2 C-3.32 2 -4.64 2 -6 2 C-6 4.31 -6 6.62 -6 9 C-6.33 9 -6.66 9 -7 9 C-7 6.36 -7 3.72 -7 1 C-4 0 -4 0 0 0 Z " fill="#282828" transform="translate(183,71)"/>
<path d="M0 0 C2.625 -0.1875 2.625 -0.1875 5 0 C4.34 1.32 3.68 2.64 3 4 C1.35 3.67 -0.3 3.34 -2 3 C-1.34 2.01 -0.68 1.02 0 0 Z " fill="#080808" transform="translate(237,98)"/>
<path d="M0 0 C0.99 0.33 1.98 0.66 3 1 C2.0409375 1.7425 2.0409375 1.7425 1.0625 2.5 C-1.81515269 5.98806387 -1.70230736 8.53461041 -2 13 C-2.33 13 -2.66 13 -3 13 C-3.4726477 4.80743982 -3.4726477 4.80743982 -1.5 1.4375 C-0.7575 0.7259375 -0.7575 0.7259375 0 0 Z " fill="#BABABA" transform="translate(364,79)"/>
<path d="M0 0 C2.64 0 5.28 0 8 0 C7.01 1.485 7.01 1.485 6 3 C5.236875 2.79375 4.47375 2.5875 3.6875 2.375 C0.78114056 1.66608797 0.78114056 1.66608797 -2 4 C-1.34 2.68 -0.68 1.36 0 0 Z " fill="#E2E2E2" transform="translate(266,79)"/>
<path d="M0 0 C3.3 0 6.6 0 10 0 C9.01 0.33 8.02 0.66 7 1 C7.33 2.32 7.66 3.64 8 5 C6.68 4.67 5.36 4.34 4 4 C4.33 3.01 4.66 2.02 5 1 C3.35 1 1.7 1 0 1 C0 0.67 0 0.34 0 0 Z " fill="#1C1C1C" transform="translate(265,74)"/>
<path d="M0 0 C1.32 0.99 2.64 1.98 4 3 C0.535 4.485 0.535 4.485 -3 6 C-3 3 -3 3 -1.5 1.3125 C-0.7575 0.6628125 -0.7575 0.6628125 0 0 Z " fill="#1D1D1D" transform="translate(182,77)"/>
<path d="M0 0 C0.33 0 0.66 0 1 0 C1 2.64 1 5.28 1 8 C-0.98 8.99 -0.98 8.99 -3 10 C-2.01 6.7 -1.02 3.4 0 0 Z " fill="#9D9D9D" transform="translate(150,109)"/>
<path d="M0 0 C1.65 0 3.3 0 5 0 C4.67 1.32 4.34 2.64 4 4 C2.68 3.67 1.36 3.34 0 3 C0 2.01 0 1.02 0 0 Z " fill="#040404" transform="translate(265,75)"/>
</svg>
